Coordinates
version=1
nRows=16
nColumns=36
inDegrees=yes

Units are S.I. units (second, meters, Newtons, ...)
If the header above contains a line with 'inDegrees', this indicates whether rotational values are in degrees (yes) or radians (no).

endheader
time	pelvis_tilt	pelvis_list	pelvis_rotation	pelvis_tx	pelvis_ty	pelvis_tz	hip_flexion_r	hip_adduction_r	hip_rotation_r	knee_angle_r	knee_angle_r_beta	ankle_angle_r	subtalar_angle_r	mtp_angle_r	hip_flexion_l	hip_adduction_l	hip_rotation_l	knee_angle_l	knee_angle_l_beta	ankle_angle_l	subtalar_angle_l	mtp_angle_l	lumbar_extension	lumbar_bending	lumbar_rotation	arm_flex_r	arm_add_r	arm_rot_r	elbow_flex_r	pro_sup_r	arm_flex_l	arm_add_l	arm_rot_l	elbow_flex_l	pro_sup_l
      4.30000000	    -21.36725349	      1.34842562	     -2.14600841	      0.89187272	      0.89024032	      0.03582137	     47.10413296	     -9.05874682	     -4.87702096	     39.54832859	      0.69024855	     11.80065330	     -7.70076538	     -7.49999987	     46.62827217	     -8.62271128	     -2.94217745	     39.15746513	      0.68342669	      9.18922765	    -13.76359438	     -7.49999987	    -18.06665529	     -0.20629463	      2.31543891	     23.04185312	    -20.70188859	     14.27144819	     76.11703894	     80.45393526	     18.68961965	    -15.83398399	     16.43853200	     77.33145683	     89.87491257
      4.31666670	    -20.45722242	      1.34879169	     -2.36029583	      0.90395544	      0.90506854	      0.03139058	     44.15655413	     -8.90510811	     -5.43009744	     36.39369203	      0.63518975	     10.55651842	     -7.39176915	     -7.49999987	     43.62951874	     -8.56056465	     -3.60450644	     36.03889541	      0.62899738	      7.82553348	    -13.62995129	     -7.49999987	    -17.59887335	      0.13173627	      1.56130507	     23.04851164	    -19.49331110	     16.98112387	     66.82686589	     78.03224002	     15.51211446	    -14.21088194	     13.43676764	     69.31199903	     87.73824161
      4.33333330	    -19.63429417	      1.43579031	     -2.66946229	      0.91011081	      0.91268318	      0.03039158	     41.32906492	     -8.76960618	     -5.83840576	     33.24279480	      0.58019622	      9.24386662	     -7.03886626	     -7.49999987	     40.50299900	     -8.45009591	     -4.44808254	     32.70846754	      0.57087045	      6.45807005	    -13.10804439	     -7.49999987	    -16.97041290	      0.15643291	      1.87662627	     21.67759902	    -18.80169937	     17.08836130	     58.80552838	     77.55975048	     14.05975912	    -12.32647740	     11.64705859	     60.27765474	     86.86137028
      4.35000000	    -18.69879788	      1.54383855	     -3.07545532	      0.91983457	      0.91497255	      0.03232128	     38.31905119	     -8.53341368	     -6.05912582	     30.04170709	      0.52432670	      8.04724727	     -6.80765532	     -7.49999987	     37.03042969	     -8.32750517	     -5.49198233	     29.14232452	      0.50862951	      5.33529660	    -12.45451826	     -7.49999987	    -15.80148382	      0.06133999	      1.93130144	     20.29405311	    -17.98212023	     17.27069093	     51.98631315	     76.73242977	     12.54160570	    -11.30018027	     10.51329947	     53.68193512	     86.08141164
      4.36666670	    -17.48601561	      1.58096971	     -3.29961752	      0.92708870	      0.92859018	      0.02598618	     34.94118456	     -8.40631168	     -6.21568658	     26.76371420	      0.46711493	      6.65366295	     -6.61970983	     -7.49999987	     33.27600329	     -8.04299973	     -6.54487999	     25.43782247	      0.44397376	      4.14443745	    -11.74136551	     -7.49999987	    -15.15356778	      0.12452039	      1.73170945	     19.40829368	    -17.23140569	     18.40109938	     44.20978936	     72.38040219	     11.29184762	    -10.19501320	      9.56662369	     45.51789556	     81.08464462
      4.38333330	    -16.60054885	      1.60080973	     -3.50162719	      0.93239793	      0.93248540	      0.02452342	     32.24704528	     -8.27581881	     -6.30995608	     24.00047400	      0.41888729	      5.40029536	     -6.58800359	     -7.49999987	     30.15692703	     -7.77044949	     -7.50777291	     22.21451024	      0.38771635	      3.47188225	    -10.84560755	     -7.49999987	    -14.28393162	      0.25224615	      1.80872028	     17.72974290	    -16.64510829	     17.43636450	     37.39342141	     72.91152052	     10.57089113	     -9.13488568	      8.48579783	     38.78093999	     82.18229985
      4.40000000	    -15.70402086	      1.61605257	     -3.62501933	      0.93807917	      0.94005724	      0.02340812	     29.72640849	     -8.21810071	     -6.41880434	     21.52658300	      0.37570975	      4.36469072	     -6.55745688	     -7.49999987	     27.34437959	     -7.45408979	     -8.24395452	     19.45859641	      0.33961658	      2.97093608	    -10.06809649	     -7.49999987	    -13.67662563	      0.38726945	      1.79398040	     16.13644587	    -16.13764294	     16.12725055	     32.53927851	     72.63051231	      9.65723748	     -8.42765441	      6.74882373	     31.63619714	     81.78189869
      4.41666670	    -14.71627064	      1.58058049	     -3.66582209	      0.93702808	      0.94846778	      0.02276235	     27.46791994	     -8.16329128	     -6.48751381	     19.62008340	      0.34243505	      3.44604501	     -6.47127860	     -7.49999987	     24.87393357	     -7.18666593	     -8.73290336	     17.35426489	      0.30288906	      2.94057703	     -9.25121108	     -7.49999987	    -13.40200544	      0.51616074	      1.70022880	     15.20752395	    -15.66953694	     15.19961808	     27.82594037	     72.30782005	      9.11228661	     -8.03406674	      5.99161031	     26.66824498	     81.12377581
      4.43333330	    -14.34425147	      1.59426652	     -3.59689198	      0.93679616	      0.94957243	      0.02307118	     26.00064981	     -8.12381077	     -6.65697861	     17.83675588	      0.31131012	      2.81200673	     -6.33630897	     -7.49999987	     23.41927463	     -6.94969963	     -9.16547471	     15.63235527	      0.27283607	      3.05586756	     -8.28689592	     -7.49999987	    -12.49866988	      0.51234160	      1.58055690	     14.64589993	    -15.12917380	     14.35079581	     23.22369020	     72.25332604	      8.68986746	     -7.94638106	      5.26087967	     21.58190066	     80.66148642
      4.45000000	    -14.05626422	      1.59496599	     -3.28758732	      0.93584146	      0.95431276	      0.02208990	     24.69540726	     -8.14951956	     -7.00830514	     16.23036467	      0.28327330	      2.45380828	     -6.06771862	     -7.49999987	     22.38442375	     -6.69493670	     -9.43695209	     14.27505602	      0.24914673	      3.10932976	     -7.44467726	     -7.49999987	    -11.87232310	      0.53205276	      1.28801829	     14.09296922	    -14.84194950	     13.73413343	     19.73069713	     72.54880238	      8.18825822	     -7.88990416	      4.38507939	     16.47304267	     80.42749551
      4.46666670	    -13.54241841	      1.60429734	     -3.17117353	      0.94044685	      0.95804750	      0.02627429	     23.24926415	     -8.09294014	     -7.28801737	     14.77634082	      0.25789580	      2.20143095	     -5.85348027	     -7.49999987	     21.01603334	     -6.52118437	     -9.83569392	     13.00298215	      0.22694485	      3.16895627	     -6.58719534	     -7.49999987	    -11.54801281	      0.33782271	      1.42387706	     13.03167885	    -14.67919781	     13.14394878	     16.64882951	     73.04852066	      7.48308711	     -8.23755946	      3.82680261	     13.23194327	     80.55339892
      4.48333330	    -13.03150582	      1.56405898	     -2.97559730	      0.94528325	      0.95616807	      0.02416666	     21.91852028	     -8.02638892	     -7.48445917	     13.62948578	      0.23787940	      1.87113153	     -5.86159367	     -7.49999987	     19.87789544	     -6.36824498	     -9.97336873	     12.09531662	      0.21110310	      3.41266137	     -5.93095448	     -7.49999987	    -11.23121622	      0.24822029	      1.20129642	     11.68464303	    -14.64672984	     12.56206298	     14.56411451	     73.76468420	      6.27828336	     -8.60727839	      2.98389097	     10.03442438	     80.83683849
      4.50000000	    -12.57515755	      1.59574499	     -2.87613069	      0.94487074	      0.96417452	      0.02422242	     20.75845018	     -8.01446851	     -7.63540640	     12.64110752	      0.22062895	      1.65264967	     -5.66316623	     -7.49999987	     18.90141826	     -6.20523052	    -10.31744269	     11.30353341	      0.19728388	      3.52924332	     -5.17038361	     -7.49999987	    -11.14203105	      0.13393851	      1.28906754	     10.66542770	    -14.68907752	     11.93556269	     12.59585178	     74.63077196	      5.59035805	     -8.96682303	      1.90745373	      7.25803327	     81.24067566
      4.51666670	    -11.99631293	      1.59326720	     -2.97948860	      0.95419682	      0.96469462	      0.02568726	     19.42379437	     -7.90933398	     -7.71330914	     11.58115884	      0.20212935	      1.34707071	     -5.62438228	     -7.49999987	     17.54863516	     -6.07891840	    -10.57210899	     10.37383577	      0.18105759	      3.55962927	     -4.62572821	     -7.49999987	    -10.93135389	      0.13301315	      1.25196725	      9.31323921	    -14.46628193	      6.11543808	     10.85546640	     84.21208633	      4.36565911	     -9.24557511	     -4.39442147	      5.91650448	     88.33368979
      4.53333330	    -11.38309305	      1.56206942	     -3.06015749	      0.95363634	      0.96764331	      0.02577813	     18.18120711	     -7.79795247	     -7.73994307	     10.73577578	      0.18737464	      1.09378838	     -5.60282803	     -7.49999987	     16.26027135	     -5.97762108	    -10.78970704	      9.54397150	      0.16657373	      3.58611115	     -4.09988936	     -7.49999987	    -11.11066111	      0.20334602	      1.30975831	      7.49851183	    -14.77248846	      5.98333795	      9.94537869	     84.29371782	      3.51960210	     -9.65483255	     -4.52215364	      5.00165505	     88.42079083
      4.55000000	    -11.06657204	      1.52944195	     -3.14575948	      0.96296685	      0.97007654	      0.02725453	     17.16589881	     -7.65896793	     -7.76513404	      9.86125158	      0.17211131	      1.04555557	     -5.65089801	     -7.49999987	     15.15210678	     -5.86290571	    -10.89774873	      8.61983663	      0.15044453	      3.55937757	     -3.92099175	     -7.49999987	    -10.59644639	      0.26386966	      1.24362789	      5.76700568	    -14.88612848	      5.95853397	      9.30997319	     84.33336236	      2.23360096	    -10.21267010	     -4.62731800	      4.43424091	     88.42641647
